{
    "asset" : {
        "generator" : "Khronos glTF Blender I/O v1.5.17",
        "version" : "2.0"
    },
    "scene" : 0,
    "scenes" : [
        {
            "name" : "Scene",
            "nodes" : [
                12
            ]
        }
    ],
    "nodes" : [
        {
            "mesh" : 0,
            "name" : "bee",
            "rotation" : [
                0.16156910359859467,
                -0.2536126971244812,
                -0.5124317407608032,
                0.8043566942214966
            ],
            "translation" : [
                0.4999999701976776,
                -0.30000001192092896,
                0.4000000059604645
            ]
        },
        {
            "name" : "Abdomen",
            "rotation" : [
                0,
                0,
                1,
                0
            ],
            "translation" : [
                2.220446049250313e-16,
                -0.8000000715255737,
                -8.940696716308594e-08
            ]
        },
        {
            "name" : "Head",
            "translation" : [
                0,
                0.6999999284744263,
                0
            ]
        },
        {
            "name" : "WingL",
            "rotation" : [
                0.9109792709350586,
                -0.07332853972911835,
                0.36741936206817627,
                0.17246133089065552
            ],
            "scale" : [
                1.000000238418579,
                1,
                1.0000003576278687
            ],
            "translation" : [
                -0.29999998211860657,
                -0.1000000536441803,
                0.6999998688697815
            ]
        },
        {
            "name" : "WingR",
            "rotation" : [
                0.9109792709350586,
                0.07332854717969894,
                -0.36741915345191956,
                0.17246130108833313
            ],
            "scale" : [
                1.0000003576278687,
                1.0000001192092896,
                1.0000003576278687
            ],
            "translation" : [
                0.30000001192092896,
                -0.1000000536441803,
                0.6999998092651367
            ]
        },
        {
            "name" : "LegLM",
            "rotation" : [
                -0.1624598354101181,
                -0.16245980560779572,
                0.6881909370422363,
                0.6881909966468811
            ],
            "translation" : [
                -0.699999988079071,
                -3.552713678800501e-15,
                -0.40000009536743164
            ]
        },
        {
            "name" : "LegLB",
            "rotation" : [
                -0.09153738617897034,
                -0.20761261880397797,
                0.8654167056083679,
                0.4467346668243408
            ],
            "scale" : [
                1,
                1,
                0.9999998807907104
            ],
            "translation" : [
                -0.6000000238418579,
                -0.4000000059604645,
                -0.40000006556510925
            ]
        },
        {
            "name" : "LegLF",
            "rotation" : [
                -0.20497354865074158,
                -0.09664124250411987,
                0.4479517340660095,
                0.8648616075515747
            ],
            "translation" : [
                -0.5,
                0.3999999761581421,
                -0.40000009536743164
            ]
        },
        {
            "name" : "LegRF",
            "rotation" : [
                -0.22181224822998047,
                0.06377650797367096,
                -0.43985697627067566,
                0.8679042458534241
            ],
            "scale" : [
                0.9999998807907104,
                0.9999999403953552,
                1
            ],
            "translation" : [
                0.4999999701976776,
                0.3999999463558197,
                -0.40000006556510925
            ]
        },
        {
            "name" : "LegRM",
            "rotation" : [
                -0.1624598354101181,
                0.16245980560779572,
                -0.6881909370422363,
                0.6881909966468811
            ],
            "translation" : [
                0.699999988079071,
                -3.552713678800501e-15,
                -0.40000009536743164
            ]
        },
        {
            "name" : "LegRB",
            "rotation" : [
                -0.10711512714624405,
                0.19952993094921112,
                -0.8636269569396973,
                0.45040279626846313
            ],
            "scale" : [
                1.0000001192092896,
                0.9999998807907104,
                0.9999998807907104
            ],
            "translation" : [
                0.6000000238418579,
                -0.4000000059604645,
                -0.40000006556510925
            ]
        },
        {
            "children" : [
                1,
                2,
                3,
                4,
                5,
                6,
                7,
                8,
                9,
                10
            ],
            "name" : "Body",
            "rotation" : [
                0,
                0.7071068286895752,
                0.7071068286895752,
                0
            ],
            "translation" : [
                -1.1102230246251565e-16,
                -2.9802322387695312e-08,
                4.470348358154297e-08
            ]
        },
        {
            "children" : [
                0,
                11
            ],
            "name" : "Armature",
            "translation" : [
                0,
                1,
                0
            ]
        }
    ],
    "materials" : [
        {
            "doubleSided" : true,
            "name" : "Body",
            "pbrMetallicRoughness" : {
                "baseColorTexture" : {
                    "index" : 0
                },
                "metallicFactor" : 0,
                "roughnessFactor" : 0.5
            }
        }
    ],
    "meshes" : [
        {
            "name" : "Cube.007",
            "primitives" : [
                {
                    "attributes" : {
                        "POSITION" : 0,
                        "NORMAL" : 1,
                        "TEXCOORD_0" : 2,
                        "TEXCOORD_1" : 3,
                        "COLOR_0" : 4
                    },
                    "indices" : 5,
                    "material" : 0
                }
            ]
        }
    ],
    "textures" : [
        {
            "sampler" : 0,
            "source" : 0
        }
    ],
    "images" : [
        {
            "mimeType" : "image/png",
            "name" : "baseColor",
            "uri" : "baseColor.png"
        }
    ],
    "accessors" : [
        {
            "bufferView" : 0,
            "componentType" : 5126,
            "count" : 3208,
            "max" : [
                1.1906309127807617,
                1.2440537214279175,
                1.8111084699630737
            ],
            "min" : [
                -2.782081127166748,
                -2.7723984718322754,
                -3.3174808025360107
            ],
            "type" : "VEC3"
        },
        {
            "bufferView" : 1,
            "componentType" : 5126,
            "count" : 3208,
            "type" : "VEC3"
        },
        {
            "bufferView" : 2,
            "componentType" : 5126,
            "count" : 3208,
            "type" : "VEC2"
        },
        {
            "bufferView" : 3,
            "componentType" : 5126,
            "count" : 3208,
            "type" : "VEC2"
        },
        {
            "bufferView" : 4,
            "componentType" : 5123,
            "count" : 3208,
            "normalized" : true,
            "type" : "VEC4"
        },
        {
            "bufferView" : 5,
            "componentType" : 5123,
            "count" : 4608,
            "type" : "SCALAR"
        }
    ],
    "bufferViews" : [
        {
            "buffer" : 0,
            "byteLength" : 38496,
            "byteOffset" : 0
        },
        {
            "buffer" : 0,
            "byteLength" : 38496,
            "byteOffset" : 38496
        },
        {
            "buffer" : 0,
            "byteLength" : 25664,
            "byteOffset" : 76992
        },
        {
            "buffer" : 0,
            "byteLength" : 25664,
            "byteOffset" : 102656
        },
        {
            "buffer" : 0,
            "byteLength" : 25664,
            "byteOffset" : 128320
        },
        {
            "buffer" : 0,
            "byteLength" : 9216,
            "byteOffset" : 153984
        }
    ],
    "samplers" : [
        {
            "magFilter" : 9729,
            "minFilter" : 9987
        }
    ],
    "buffers" : [
        {
            "byteLength" : 163200,
            "uri" : "bee.bin"
        }
    ]
}
