{
    "asset" : {
        "generator" : "Khronos glTF Blender I/O v1.5.17",
        "version" : "2.0"
    },
    "scene" : 0,
    "scenes" : [
        {
            "name" : "Scene",
            "nodes" : [
                0
            ]
        }
    ],
    "nodes" : [
        {
            "mesh" : 0,
            "name" : "head"
        }
    ],
    "materials" : [
        {
            "doubleSided" : true,
            "name" : "Body.001",
            "pbrMetallicRoughness" : {
                "baseColorFactor" : [
                    0.8000000715255737,
                    0.4960950016975403,
                    0.0012520421296358109,
                    1
                ],
                "metallicFactor" : 0,
                "roughnessFactor" : 0.5
            }
        },
        {
            "doubleSided" : true,
            "name" : "Legs.001",
            "pbrMetallicRoughness" : {
                "baseColorFactor" : [
                    0.10653359442949295,
                    0.05354013293981552,
                    0.005222768988460302,
                    1
                ],
                "metallicFactor" : 0,
                "roughnessFactor" : 0.5
            }
        }
    ],
    "meshes" : [
        {
            "name" : "Cube.002",
            "primitives" : [
                {
                    "attributes" : {
                        "POSITION" : 0,
                        "NORMAL" : 1,
                        "TEXCOORD_0" : 2,
                        "COLOR_0" : 3
                    },
                    "indices" : 4,
                    "material" : 0
                },
                {
                    "attributes" : {
                        "POSITION" : 5,
                        "NORMAL" : 6,
                        "TEXCOORD_0" : 7,
                        "COLOR_0" : 8
                    },
                    "indices" : 9,
                    "material" : 1
                }
            ]
        }
    ],
    "accessors" : [
        {
            "bufferView" : 0,
            "componentType" : 5126,
            "count" : 88,
            "max" : [
                0.7350752353668213,
                0.6218869686126709,
                1.6840076446533203
            ],
            "min" : [
                -0.7350752353668213,
                -0.7507412433624268,
                0.651964545249939
            ],
            "type" : "VEC3"
        },
        {
            "bufferView" : 1,
            "componentType" : 5126,
            "count" : 88,
            "type" : "VEC3"
        },
        {
            "bufferView" : 2,
            "componentType" : 5126,
            "count" : 88,
            "type" : "VEC2"
        },
        {
            "bufferView" : 3,
            "componentType" : 5123,
            "count" : 88,
            "normalized" : true,
            "type" : "VEC4"
        },
        {
            "bufferView" : 4,
            "componentType" : 5123,
            "count" : 132,
            "type" : "SCALAR"
        },
        {
            "bufferView" : 5,
            "componentType" : 5126,
            "count" : 8,
            "max" : [
                0.7350752353668213,
                0.4912071228027344,
                1.5922706127166748
            ],
            "min" : [
                -0.7350752353668213,
                0.05759918689727783,
                1.1671812534332275
            ],
            "type" : "VEC3"
        },
        {
            "bufferView" : 6,
            "componentType" : 5126,
            "count" : 8,
            "type" : "VEC3"
        },
        {
            "bufferView" : 7,
            "componentType" : 5126,
            "count" : 8,
            "type" : "VEC2"
        },
        {
            "bufferView" : 8,
            "componentType" : 5123,
            "count" : 8,
            "normalized" : true,
            "type" : "VEC4"
        },
        {
            "bufferView" : 9,
            "componentType" : 5123,
            "count" : 12,
            "type" : "SCALAR"
        }
    ],
    "bufferViews" : [
        {
            "buffer" : 0,
            "byteLength" : 1056,
            "byteOffset" : 0
        },
        {
            "buffer" : 0,
            "byteLength" : 1056,
            "byteOffset" : 1056
        },
        {
            "buffer" : 0,
            "byteLength" : 704,
            "byteOffset" : 2112
        },
        {
            "buffer" : 0,
            "byteLength" : 704,
            "byteOffset" : 2816
        },
        {
            "buffer" : 0,
            "byteLength" : 264,
            "byteOffset" : 3520
        },
        {
            "buffer" : 0,
            "byteLength" : 96,
            "byteOffset" : 3784
        },
        {
            "buffer" : 0,
            "byteLength" : 96,
            "byteOffset" : 3880
        },
        {
            "buffer" : 0,
            "byteLength" : 64,
            "byteOffset" : 3976
        },
        {
            "buffer" : 0,
            "byteLength" : 64,
            "byteOffset" : 4040
        },
        {
            "buffer" : 0,
            "byteLength" : 24,
            "byteOffset" : 4104
        }
    ],
    "buffers" : [
        {
            "byteLength" : 4128,
            "uri" : "head.bin"
        }
    ]
}
